<?xml version="1.0" standalone="no"?>
<!DOCTYPE svg PUBLIC "-//W3C//DTD SVG 20010904//EN"
 "http://www.w3.org/TR/2001/REC-SVG-20010904/DTD/svg10.dtd">
<svg version="1.0" xmlns="http://www.w3.org/2000/svg"
 width="512.000000pt" height="512.000000pt" viewBox="0 0 512.000000 512.000000"
 preserveAspectRatio="xMidYMid meet">

<g transform="translate(0.000000,512.000000) scale(0.100000,-0.100000)"
fill="#000000" stroke="none">
<path d="M2305 4518 c-9 -61 -2 -648 8 -648 5 0 6 -4 3 -9 -6 -9 -9 -2603 -4
-2605 14 -5 579 11 568 16 -8 4 -134 9 -280 12 -146 3 -266 5 -267 5 -9 2 0
30 17 51 21 27 29 120 10 120 -5 0 -10 -6 -10 -12 0 -8 -5 -6 -10 3 -6 11 -10
592 -10 1563 -1 901 -5 1546 -10 1546 -5 0 -12 -19 -15 -42z"/>
<path d="M1360 4537 c0 -5 55 -125 101 -222 28 -60 34 -85 39 -170 7 -103 7
-103 15 45 1 17 4 32 7 35 2 3 19 -22 37 -56 28 -52 31 -66 26 -107 -5 -42 -5
-45 8 -29 13 16 16 13 31 -26 9 -24 25 -53 36 -65 11 -12 20 -28 20 -35 0 -8
7 -20 15 -27 10 -8 12 -17 6 -24 -14 -18 -8 -61 9 -61 8 0 18 -13 21 -30 5
-22 7 -12 8 33 1 58 -3 71 -51 160 -28 53 -61 113 -73 132 -12 19 -36 63 -53
98 -35 69 -70 123 -58 87 13 -36 -10 -2 -29 45 -10 25 -24 52 -30 60 -15 19
-64 127 -60 132 2 2 -3 9 -11 16 -8 7 -14 11 -14 9z"/>
<path d="M2393 2923 l2 -1572 590 -5 c325 -3 602 -3 617 0 17 4 25 11 21 20
-3 8 7 24 23 36 60 49 141 136 187 201 26 37 47 70 47 72 0 9 70 114 80 120 5
3 10 15 10 26 0 11 11 31 24 44 13 13 20 25 14 27 -9 3 9 57 49 150 9 20 20
35 25 32 4 -3 9 4 9 15 1 12 2 33 3 49 2 27 19 131 37 225 5 26 9 106 9 177 0
120 10 169 24 117 11 -43 6 -273 -9 -362 -27 -161 -122 -462 -160 -505 -7 -8
-23 -35 -35 -60 -13 -25 -40 -70 -61 -100 -21 -30 -53 -75 -70 -100 -17 -25
-47 -63 -68 -84 l-36 -39 32 22 c55 38 226 288 267 391 10 25 21 50 26 55 22
28 93 258 112 367 30 164 32 444 5 593 -31 169 -111 384 -197 530 -33 56 -58
94 -138 205 -40 55 -205 217 -289 283 -67 52 -206 137 -294 179 -206 99 -458
155 -721 159 -65 2 -105 6 -101 12 3 5 1 12 -5 16 -10 6 -15 46 -13 114 1 35
2 37 35 37 19 0 38 5 41 10 4 6 -5 10 -20 10 -43 0 -66 17 -59 45 3 13 1 32
-5 42 -7 13 -10 -441 -8 -1554z m240 1232 c-3 -11 -197 -20 -222 -10 -13 5
-14 7 -1 16 20 12 226 7 223 -6z m247 -25 c82 -17 218 -63 198 -68 -10 -2 -52
7 -95 19 -43 12 -105 27 -137 33 -33 6 -61 17 -64 24 -3 9 3 11 20 8 12 -3 48
-10 78 -16z m500 -202 c0 -11 -63 10 -72 24 -15 25 -8 26 32 5 22 -12 40 -25
40 -29z m323 -256 c88 -92 111 -122 89 -122 -4 0 -27 25 -51 55 -46 58 -100
109 -195 185 -31 24 -56 50 -56 57 0 21 109 -69 213 -175z m162 -201 c-9 -8
-55 42 -55 58 1 11 11 4 30 -18 16 -19 27 -37 25 -40z m75 -111 c12 -23 12
-24 -3 -11 -10 7 -17 20 -17 29 0 18 3 16 20 -18z m146 -318 c3 -14 9 -32 13
-41 5 -9 6 -22 4 -28 -10 -27 -21 -10 -33 50 -6 34 -14 71 -16 82 -3 13 1 10
11 -9 9 -15 19 -39 21 -54z m42 -136 c6 -31 -16 -43 -27 -15 -5 13 -7 28 -4
32 8 13 28 2 31 -17z m12 -78 c-1 -28 -2 -30 -11 -15 -6 10 -8 25 -5 33 9 24
16 16 16 -18z m-1659 -353 c19 -14 71 -64 116 -110 46 -47 89 -85 96 -85 12 0
29 11 140 86 22 14 41 23 44 20 6 -6 -40 -48 -84 -77 -30 -19 -51 -54 -39 -66
2 -3 17 4 33 15 73 52 254 112 333 111 l55 -1 -77 -13 c-43 -7 -92 -22 -110
-33 -18 -11 -70 -39 -116 -62 -99 -50 -98 -55 25 -100 l85 -31 34 21 35 20
-12 -22 c-11 -21 -10 -21 47 -14 32 4 70 9 84 12 l25 6 -23 -17 c-48 -36 -230
-74 -388 -82 -107 -5 -113 -4 -189 26 -43 18 -82 30 -87 29 -5 -2 5 -17 22
-35 42 -43 190 -101 280 -109 38 -4 70 -11 70 -15 0 -14 -63 -21 -105 -11
-172 41 -320 94 -334 121 -5 9 -6 22 -3 30 2 7 -2 17 -9 22 -11 6 -11 11 -2
20 9 9 16 9 28 -1 12 -10 15 -10 15 4 0 21 2 21 103 -15 49 -16 128 -35 177
-40 77 -9 94 -8 121 7 l32 16 -24 20 c-13 10 -46 30 -74 45 l-49 26 -71 -17
c-80 -19 -163 -20 -219 -3 -52 16 -61 38 -12 30 32 -5 176 30 176 43 0 25
-118 170 -160 195 -34 21 -58 59 -37 59 7 0 29 -11 48 -25z m993 2 c-3 -8 -30
-29 -61 -48 -30 -19 -67 -44 -81 -56 -29 -26 -40 -30 -22 -8 12 14 6 15 -56
11 -49 -4 -60 -3 -39 3 165 49 212 68 235 96 15 19 31 20 24 2z m-445 -41
c-10 -9 -79 -14 -74 -5 4 5 22 9 42 9 20 0 34 -2 32 -4z m-359 -20 c0 -3 -4
-8 -10 -11 -5 -3 -10 -1 -10 4 0 6 5 11 10 11 6 0 10 -2 10 -4z m583 -85 c17
-6 17 -8 3 -20 -11 -9 -16 -10 -16 -2 0 6 -12 11 -26 11 -14 0 -23 4 -19 10 7
11 31 12 58 1z m-673 -392 c19 -5 64 -14 100 -18 l65 -8 -70 -2 c-72 -1 -140
12 -150 29 -8 13 12 13 55 -1z m1075 -148 c-6 -5 -37 -12 -70 -15 -66 -7 -63
0 6 13 62 12 75 13 64 2z m-785 -139 c0 -10 -45 -32 -65 -32 -30 0 -167 -60
-205 -90 -42 -33 -74 -83 -67 -103 2 -6 11 -3 23 9 25 25 62 30 70 10 7 -19
35 -21 53 -3 11 10 13 10 7 0 -4 -7 -2 -13 3 -13 6 0 11 3 11 8 0 4 25 8 56 8
46 1 73 10 145 48 49 26 89 42 89 37 0 -15 -48 -49 -80 -56 -38 -8 -47 -23
-20 -33 20 -7 20 -9 -10 -37 l-31 -30 -177 -2 c-98 -2 -191 1 -207 5 -27 8
-30 12 -31 53 -1 69 7 109 23 109 8 0 12 -4 9 -9 -14 -22 78 10 124 44 50 36
72 44 186 60 17 2 42 9 55 14 31 12 39 13 39 3z m-243 -18 c-3 -3 -12 -4 -19
-1 -8 3 -5 6 6 6 11 1 17 -2 13 -5z m-99 -26 c-3 -7 -19 -16 -37 -20 -17 -5
-29 -13 -26 -18 7 -11 -8 -14 -18 -4 -7 8 52 52 71 53 8 1 12 -4 10 -11z m596
-140 c-19 -29 -37 -61 -40 -70 -6 -21 -38 -32 -58 -21 -12 7 -12 11 3 28 22
26 119 115 125 115 3 0 -11 -24 -30 -52z"/>
<path d="M2636 2223 c-4 -5 -26 -14 -49 -20 l-42 -13 57 4 c66 5 87 14 67 27
-17 11 -24 11 -33 2z"/>
<path d="M1484 4450 c20 -71 130 -269 143 -256 3 3 -1 16 -9 28 -8 13 -41 73
-73 133 -63 120 -71 132 -61 95z"/>
<path d="M2518 4373 c7 -3 16 -2 19 1 4 3 -2 6 -13 5 -11 0 -14 -3 -6 -6z"/>
<path d="M2610 4370 c36 -4 88 -8 115 -7 47 0 46 0 -15 7 -36 4 -87 8 -115 7
-47 0 -46 0 15 -7z"/>
<path d="M2867 4340 c392 -97 761 -301 978 -540 28 -30 53 -57 58 -58 8 -4 97
-122 149 -199 20 -29 39 -49 42 -45 4 3 4 -1 1 -10 -6 -16 21 -52 33 -44 4 2
7 -9 8 -24 1 -32 41 -103 54 -95 9 5 43 -74 39 -91 -1 -5 3 -22 9 -37 7 -16
12 -35 12 -43 0 -8 5 -12 10 -9 6 3 10 4 10 2 0 -2 11 -35 25 -73 30 -82 56
-200 54 -246 l-2 -33 -7 35 c-4 19 -4 -10 -1 -65 3 -55 6 -160 6 -233 0 -72 3
-132 8 -132 4 0 6 -17 6 -37 -1 -38 -1 -38 -9 -8 -6 22 -8 12 -8 -40 0 -38 -5
-82 -10 -96 -6 -15 -14 -47 -17 -70 -4 -24 -10 -48 -15 -53 -5 -5 -7 -23 -4
-40 5 -25 3 -28 -6 -16 -9 12 -10 9 -5 -13 3 -16 2 -26 -2 -24 -5 3 -18 -21
-30 -54 -15 -45 -17 -59 -7 -55 11 4 11 -2 -2 -32 -9 -20 -24 -57 -34 -82 -32
-79 -120 -233 -175 -305 -58 -77 -95 -115 -95 -96 0 9 -5 9 -21 1 -25 -14 -36
-6 -20 14 9 11 6 20 -15 45 -17 20 -24 37 -19 48 5 14 8 15 15 4 5 -10 8 -6 7
13 -2 26 -3 25 -37 -16 -85 -104 -105 -121 -141 -120 -19 1 -41 -3 -49 -8 -11
-7 -4 -10 25 -10 227 -3 314 -6 318 -10 3 -3 -15 -70 -39 -150 -42 -136 -100
-351 -145 -534 -25 -102 -32 -110 -83 -100 -39 7 -409 16 -526 13 -108 -3
-178 -2 -370 7 -107 5 -430 8 -717 7 -458 -1 -525 -3 -545 -17 -12 -9 -41 -16
-64 -16 -41 0 -42 -1 -42 -34 0 -19 -3 -40 -7 -46 -4 -6 -1 -17 5 -26 11 -12
169 -14 1200 -14 1162 0 1187 1 1207 20 21 19 31 47 73 205 12 44 32 116 45
160 87 299 96 341 84 390 -14 56 -12 61 73 182 196 277 318 668 318 1025 0
187 -46 443 -112 623 -82 224 -260 532 -378 656 -14 14 -52 56 -85 94 -136
153 -412 352 -605 434 -30 13 -74 32 -97 42 -23 11 -48 19 -55 19 -8 0 -41 9
-73 21 -58 21 -235 60 -258 58 -7 -1 20 -9 60 -19z m1496 -1622 c2 -26 1 -45
-4 -42 -5 3 -9 29 -8 57 1 59 5 54 12 -15z m4 -285 c-3 -10 -5 -4 -5 12 0 17
2 24 5 18 2 -7 2 -21 0 -30z"/>
<path d="M1480 4335 c0 -5 5 -17 10 -25 5 -8 10 -10 10 -5 0 6 -5 17 -10 25
-5 8 -10 11 -10 5z"/>
<path d="M2710 4204 c14 -2 59 -9 100 -15 41 -6 86 -13 100 -15 20 -4 18 -2
-8 10 -19 9 -74 18 -125 20 -51 3 -81 3 -67 0z"/>
<path d="M1632 4175 c10 -30 151 -306 159 -310 17 -11 9 8 -58 134 -62 118
-109 199 -101 176z"/>
<path d="M2942 4164 c10 -9 160 -46 165 -40 3 3 -8 8 -23 11 -16 4 -49 13 -73
21 -46 14 -79 18 -69 8z"/>
<path d="M1501 4014 c0 -11 3 -14 6 -6 3 7 2 16 -1 19 -3 4 -6 -2 -5 -13z"/>
<path d="M1502 3925 c0 -16 2 -22 5 -12 2 9 2 23 0 30 -3 6 -5 -1 -5 -18z"/>
<path d="M1493 3861 c-7 -11 -10 -26 -7 -34 3 -8 -35 -51 -99 -110 -308 -285
-497 -720 -497 -1144 0 -57 -4 -93 -10 -93 -6 0 -8 -10 -6 -22 3 -13 7 -61 10
-108 4 -72 9 -106 30 -205 1 -5 4 -14 8 -20 3 -5 9 -26 12 -46 9 -60 63 -201
114 -300 88 -169 176 -292 319 -444 11 -11 40 -38 66 -59 26 -22 43 -44 39
-48 -5 -5 -41 24 -79 64 -62 63 -73 70 -87 59 -9 -8 -16 -9 -16 -3 0 6 6 13
13 15 8 3 -1 18 -25 41 -33 33 -60 35 -42 4 4 -7 -2 -5 -13 5 -22 19 -44 22
-60 6 -12 -12 -74 64 -134 161 -18 30 -36 57 -39 60 -10 8 -90 170 -90 181 0
6 -8 23 -19 37 -10 15 -22 41 -26 57 -4 17 -9 25 -11 20 -2 -6 3 -35 11 -65 9
-30 17 -62 18 -70 1 -8 8 -19 14 -23 7 -4 18 -28 24 -52 6 -24 17 -50 25 -56
8 -6 14 -20 14 -30 0 -11 5 -19 10 -19 6 0 10 -8 10 -17 0 -28 72 -132 212
-306 44 -55 223 -229 266 -258 36 -26 42 -35 42 -67 0 -28 3 -33 10 -22 5 8
10 81 10 161 0 146 0 147 -26 163 -41 28 -154 149 -168 181 -7 17 -43 61 -80
98 -36 38 -64 72 -61 76 2 5 -9 29 -25 54 -16 25 -36 67 -45 94 -9 26 -20 52
-25 58 -11 13 -80 181 -80 194 0 25 29 9 35 -19 8 -35 22 -39 28 -7 2 12 6 -5
7 -38 2 -33 3 -67 4 -75 1 -8 11 -36 23 -63 17 -37 28 -49 51 -53 18 -4 35
-16 43 -33 26 -50 38 -55 33 -14 -3 33 -3 35 5 11 5 -15 19 -42 32 -59 13 -18
17 -29 9 -24 -7 4 -5 -3 6 -18 10 -14 35 -35 54 -46 19 -11 48 -33 64 -50 32
-33 45 -39 42 -18 0 6 4 14 9 16 17 6 44 -91 45 -164 0 -50 3 -65 10 -53 16
27 8 2564 -7 2539z m-85 -190 c-52 -53 -114 -120 -137 -148 -59 -73 -72 -67
-19 8 59 84 239 268 245 250 3 -8 -34 -53 -89 -110z m-239 -291 c-6 -16 -15
-30 -20 -30 -12 0 -11 4 3 35 16 35 29 31 17 -5z m-29 -45 c0 -12 -24 -55 -32
-55 -11 0 -10 4 4 35 9 21 28 35 28 20z m-40 -84 c0 -4 -13 -37 -29 -72 -29
-66 -80 -233 -100 -328 -6 -30 -15 -59 -20 -65 -5 -6 -11 -20 -15 -31 -3 -11
-3 3 -1 30 5 46 43 212 60 260 20 54 59 154 72 183 14 30 33 43 33 23z m-162
-719 c-2 -66 43 -359 65 -419 10 -25 12 -45 6 -48 -17 -11 -28 5 -35 53 -3 26
-10 52 -14 57 -27 37 -57 407 -32 391 6 -4 11 -19 10 -34z m362 -46 c0 -3 -4
-8 -10 -11 -5 -3 -10 -1 -10 4 0 6 5 11 10 11 6 0 10 -2 10 -4z m149 -163 c33
-19 40 -33 17 -33 -18 0 -76 49 -59 50 6 0 25 -8 42 -17z m21 -86 c0 -8 -12
-19 -27 -26 l-28 -13 24 26 c28 30 31 31 31 13z m-101 -105 c-38 -52 -90 -106
-82 -84 10 26 84 114 91 107 2 -2 -2 -12 -9 -23z m21 -352 c13 -9 13 -11 0
-19 -17 -12 -30 -5 -30 15 0 16 9 18 30 4z m77 -93 c-3 -7 1 -21 9 -32 8 -10
14 -38 14 -62 0 -44 0 -44 -32 -40 -18 2 -33 9 -33 16 0 15 -73 61 -97 61 -9
0 -19 4 -22 8 -3 5 23 5 57 1 50 -6 65 -4 80 9 17 15 17 17 -5 34 l-23 18 29
0 c19 0 27 -4 23 -13z m-107 -407 c0 -5 -2 -10 -4 -10 -3 0 -8 5 -11 10 -3 6
-1 10 4 10 6 0 11 -4 11 -10z m110 -155 c0 -8 -2 -15 -4 -15 -2 0 -6 7 -10 15
-3 8 -1 15 4 15 6 0 10 -7 10 -15z"/>
<path d="M3600 3846 c14 -15 34 -33 45 -39 18 -9 19 -9 6 7 -8 9 -28 27 -45
38 l-31 22 25 -28z"/>
<path d="M1803 3755 c0 -22 2 -30 4 -17 2 12 2 30 0 40 -3 9 -5 -1 -4 -23z"/>
<path d="M3690 3767 c0 -2 16 -17 35 -34 19 -17 35 -28 35 -23 0 4 -16 20 -35
34 -19 15 -35 25 -35 23z"/>
<path d="M1369 3743 c-13 -16 -12 -17 4 -4 9 7 17 15 17 17 0 8 -8 3 -21 -13z"/>
<path d="M1731 3714 c0 -11 3 -14 6 -6 3 7 2 16 -1 19 -3 4 -6 -2 -5 -13z"/>
<path d="M3775 3680 c3 -5 11 -10 16 -10 6 0 7 5 4 10 -3 6 -11 10 -16 10 -6
0 -7 -4 -4 -10z"/>
<path d="M3880 3556 c0 -2 8 -10 18 -17 15 -13 16 -12 3 4 -13 16 -21 21 -21
13z"/>
<path d="M3930 3491 c0 -5 5 -13 10 -16 6 -3 10 -2 10 4 0 5 -4 13 -10 16 -5
3 -10 2 -10 -4z"/>
<path d="M1804 3290 c0 -85 2 -120 3 -77 2 42 2 112 0 155 -1 42 -3 7 -3 -78z"/>
<path d="M3990 3403 c1 -12 39 -79 40 -70 0 12 -28 77 -34 77 -4 0 -6 -3 -6
-7z"/>
<path d="M4065 3260 c12 -38 44 -110 49 -110 6 0 -41 121 -50 129 -4 3 -3 -5
1 -19z"/>
<path d="M4200 3275 c0 -5 5 -17 10 -25 5 -8 10 -10 10 -5 0 6 -5 17 -10 25
-5 8 -10 11 -10 5z"/>
<path d="M1732 3245 c0 -16 2 -22 5 -12 2 9 2 23 0 30 -3 6 -5 -1 -5 -18z"/>
<path d="M1734 3000 c0 -85 2 -120 3 -77 2 42 2 112 0 155 -1 42 -3 7 -3 -78z"/>
<path d="M1803 3060 c0 -36 2 -50 4 -32 2 17 2 47 0 65 -2 17 -4 3 -4 -33z"/>
<path d="M4136 3080 c8 -42 32 -101 33 -80 1 8 -8 38 -19 65 -17 42 -19 44
-14 15z"/>
<path d="M4170 2965 c0 -6 7 -30 15 -55 l15 -45 -6 45 c-5 39 -24 82 -24 55z"/>
<path d="M1733 2800 c0 -25 2 -35 4 -22 2 12 2 32 0 45 -2 12 -4 2 -4 -23z"/>
<path d="M4202 2820 c0 -14 2 -19 5 -12 2 6 2 18 0 25 -3 6 -5 1 -5 -13z"/>
<path d="M4212 2750 c0 -25 3 -65 7 -90 5 -36 8 -40 12 -20 2 14 -1 54 -7 90
-11 61 -12 62 -12 20z"/>
<path d="M819 2753 c-13 -15 -12 -15 9 -4 23 12 28 21 13 21 -5 0 -15 -7 -22
-17z"/>
<path d="M1728 2655 c-2 -52 0 -95 5 -95 4 0 7 43 7 95 0 52 -2 95 -4 95 -3 0
-6 -43 -8 -95z"/>
<path d="M1582 2700 c0 -19 2 -27 5 -17 2 9 2 25 0 35 -3 9 -5 1 -5 -18z"/>
<path d="M1620 2700 c-10 -19 -8 -20 35 -20 28 0 44 4 40 10 -3 6 -13 10 -21
10 -8 0 -14 5 -14 10 0 18 -29 11 -40 -10z"/>
<path d="M1688 2635 c-3 -14 -1 -25 3 -25 5 0 9 11 9 25 0 14 -2 25 -4 25 -2
0 -6 -11 -8 -25z"/>
<path d="M1580 2599 c0 -29 3 -49 7 -46 11 12 14 85 3 92 -6 4 -10 -12 -10
-46z"/>
<path d="M1804 2455 c0 -82 2 -115 3 -72 2 43 2 110 0 150 -1 40 -3 5 -3 -78z"/>
<path d="M1728 2534 c-5 -4 -8 -29 -8 -56 0 -40 -3 -48 -19 -48 -10 0 -22 -7
-25 -16 -5 -13 -1 -15 19 -12 21 4 25 1 25 -18 0 -12 -6 -24 -12 -27 -10 -3
-10 -9 0 -26 16 -27 15 -31 -3 -31 -8 0 -14 3 -14 8 3 19 -2 33 -11 27 -7 -4
-7 -13 0 -24 6 -13 4 -28 -10 -54 -24 -44 -25 -63 -5 -70 19 -8 31 13 14 25
-10 6 -6 7 11 2 35 -9 36 -12 14 -29 -19 -14 -19 -14 1 -15 16 -1 14 -4 -10
-17 -40 -22 -56 -44 -50 -69 3 -12 -3 -29 -13 -40 -18 -19 -17 -23 14 -56 7
-9 4 -25 -13 -60 -13 -26 -23 -57 -23 -69 0 -42 24 -114 44 -130 21 -17 21
-17 -12 -48 -33 -32 -42 -48 -19 -35 10 6 10 4 0 -7 -16 -16 -17 -76 -2 -81 9
-3 9 -10 -1 -27 -7 -14 -10 -41 -7 -65 3 -23 2 -57 -3 -76 -6 -26 -8 -8 -9 73
-1 64 -5 107 -11 107 -6 0 -9 -85 -9 -235 1 -129 3 -235 5 -235 2 0 11 14 20
31 9 19 11 28 4 24 -8 -5 -11 -3 -8 6 3 8 11 13 18 11 6 -1 10 3 8 9 -2 7 6
23 19 37 13 14 21 27 18 30 -3 3 2 16 10 29 9 13 13 28 10 33 -3 6 -2 10 3 10
16 0 23 31 11 46 -6 7 -8 23 -4 34 5 15 1 26 -12 36 -14 11 -15 13 -1 8 12 -4
18 2 23 25 4 17 11 33 16 36 5 3 3 15 -4 27 -9 16 -9 22 1 25 17 7 16 83 -2
83 -9 0 -13 15 -12 53 1 33 5 51 13 50 7 -2 13 29 18 90 8 121 2 711 -7 701z
m-112 -1310 c-15 -14 -16 -14 -16 4 0 11 6 22 13 25 19 6 21 -11 3 -29z"/>
<path d="M1691 2515 c1 -11 -2 -30 -6 -42 -4 -14 -3 -23 3 -23 13 0 22 52 12
70 -7 12 -9 11 -9 -5z"/>
<path d="M4212 2380 c-7 -72 -15 -136 -18 -143 -3 -8 4 -13 17 -14 16 -2 18 1
9 11 -6 8 -8 31 -4 57 3 24 8 56 9 71 2 15 6 55 10 88 4 35 3 60 -2 60 -5 0
-15 -59 -21 -130z"/>
<path d="M1587 2325 c-4 -8 -2 -17 3 -20 6 -4 10 3 10 14 0 25 -6 27 -13 6z"/>
<path d="M4251 2299 c-31 -25 -23 -33 9 -9 14 10 23 21 20 23 -3 3 -16 -3 -29
-14z"/>
<path d="M762 2250 c0 -19 2 -27 5 -17 2 9 2 25 0 35 -3 9 -5 1 -5 -18z"/>
<path d="M4300 2260 c0 -5 7 -10 15 -10 8 0 15 5 15 10 0 6 -7 10 -15 10 -8 0
-15 -4 -15 -10z"/>
<path d="M1588 2220 c-2 -22 0 -40 4 -40 5 0 8 18 8 40 0 22 -2 40 -4 40 -2 0
-6 -18 -8 -40z"/>
<path d="M1803 2120 c0 -47 2 -66 4 -42 2 23 2 61 0 85 -2 23 -4 4 -4 -43z"/>
<path d="M4187 2183 c-10 -17 -25 -83 -19 -83 4 0 14 20 23 45 9 25 13 45 8
45 -4 0 -10 -3 -12 -7z"/>
<path d="M771 2164 c0 -11 3 -14 6 -6 3 7 2 16 -1 19 -3 4 -6 -2 -5 -13z"/>
<path d="M1580 2135 c0 -14 5 -25 10 -25 6 0 10 11 10 25 0 14 -4 25 -10 25
-5 0 -10 -11 -10 -25z"/>
<path d="M1582 1978 c0 -68 2 -139 7 -158 4 -22 8 24 9 123 1 86 -2 157 -6
157 -5 0 -10 -55 -10 -122z"/>
<path d="M2188 2073 c7 -3 16 -2 19 1 4 3 -2 6 -13 5 -11 0 -14 -3 -6 -6z"/>
<path d="M4136 2015 c-4 -17 -14 -43 -22 -60 -20 -43 -45 -118 -41 -122 7 -7
79 185 75 198 -3 8 -8 0 -12 -16z"/>
<path d="M821 1995 c0 -11 4 -27 9 -35 9 -13 10 -13 9 0 0 8 -4 24 -9 35 l-9
20 0 -20z"/>
<path d="M4050 1800 c-6 -11 -7 -20 -2 -20 6 0 12 9 15 20 3 11 3 20 1 20 -2
0 -8 -9 -14 -20z"/>
<path d="M4025 1750 c-3 -5 -1 -10 4 -10 6 0 11 5 11 10 0 6 -2 10 -4 10 -3 0
-8 -4 -11 -10z"/>
<path d="M1580 1667 c0 -42 4 -77 9 -77 10 0 9 135 -1 146 -5 4 -8 -27 -8 -69z"/>
<path d="M4007 1723 c-4 -3 -7 -11 -7 -17 0 -6 5 -5 12 2 6 6 9 14 7 17 -3 3
-9 2 -12 -2z"/>
<path d="M1622 1711 c-11 -7 -11 -9 1 -14 16 -6 27 0 27 15 0 10 -11 10 -28
-1z"/>
<path d="M3966 1654 c-5 -14 -4 -15 9 -4 17 14 19 20 6 20 -5 0 -12 -7 -15
-16z"/>
<path d="M4000 1650 c-8 -5 -10 -10 -5 -10 6 0 17 5 25 10 8 5 11 10 5 10 -5
0 -17 -5 -25 -10z"/>
<path d="M4076 1590 c-9 -17 -13 -30 -8 -30 9 0 35 50 29 56 -2 2 -11 -10 -21
-26z"/>
<path d="M3925 1590 c-10 -11 -13 -20 -8 -20 13 0 38 29 31 35 -3 3 -13 -4
-23 -15z"/>
<path d="M1280 1572 c0 -12 94 -121 120 -139 31 -22 46 -4 27 33 -19 36 -62
77 -104 98 -36 18 -43 19 -43 8z"/>
<path d="M2050 1561 c0 -6 5 -11 11 -11 5 0 7 -4 4 -10 -3 -6 1 -7 10 -4 9 4
15 7 13 8 -2 1 -11 8 -20 15 -12 9 -18 10 -18 2z"/>
<path d="M3927 1495 c-19 -14 -20 -46 -1 -52 6 -2 16 8 22 22 21 46 13 57 -21
30z"/>
<path d="M4003 1488 c-26 -30 -40 -53 -25 -44 12 7 56 66 49 66 -2 0 -13 -10
-24 -22z"/>
<path d="M2000 1475 c0 -19 -6 -22 -52 -24 -29 -1 -54 -4 -56 -6 -3 -2 -1 -17
3 -32 6 -26 7 -27 20 -10 10 13 24 18 49 16 20 -2 41 2 48 9 6 6 9 12 6 12 -4
0 -3 13 2 28 6 22 4 29 -6 29 -8 0 -14 -10 -14 -22z"/>
<path d="M1862 1479 c2 -7 10 -15 17 -17 8 -3 12 1 9 9 -2 7 -10 15 -17 17 -8
3 -12 -1 -9 -9z"/>
<path d="M1908 1383 c-19 -5 -31 -30 -18 -38 18 -11 10 -25 -12 -25 -17 0 -19
-3 -10 -9 11 -7 11 -9 -2 -14 -9 -4 -16 -16 -16 -27 0 -12 -7 -20 -17 -20 -15
-1 -13 -5 9 -24 18 -16 34 -22 52 -19 26 5 37 -11 14 -20 -7 -3 5 -6 27 -7 36
-1 38 -2 18 -12 -13 -6 -23 -15 -23 -20 0 -4 -12 -5 -27 -2 -25 7 -27 6 -15
-9 8 -9 26 -18 40 -20 15 -2 10 -4 -12 -3 -24 1 -41 -4 -44 -12 -3 -10 7 -13
39 -10 24 2 45 0 47 -4 6 -20 -1 -24 -40 -24 -24 0 -56 -3 -72 -8 -21 -7 -27
-6 -22 3 4 6 3 11 -3 11 -5 0 -11 -6 -14 -12 -3 -10 -7 -10 -20 0 -11 10 -21
11 -35 3 -16 -9 -23 -6 -34 11 l-15 22 -5 -27 c-4 -19 -1 -27 9 -27 23 0 9
-25 -15 -28 -15 -2 -22 2 -22 13 0 9 -4 13 -10 10 -14 -9 -9 -76 8 -105 9 -14
27 -36 40 -49 16 -15 21 -26 14 -29 -7 -2 -12 -12 -12 -22 0 -10 -9 -20 -20
-23 -24 -6 -24 -7 -6 28 18 34 10 65 -9 39 -9 -12 -19 -15 -39 -10 -15 4 -26
3 -23 -1 30 -53 59 -161 45 -169 -5 -3 -2 -11 7 -17 13 -10 10 -12 -15 -14
-34 -2 -37 3 -15 26 12 15 11 20 -11 49 -14 17 -30 32 -36 32 -7 0 -6 -5 2
-15 9 -11 8 -18 -9 -36 -12 -13 -21 -26 -21 -31 0 -4 -5 -8 -10 -8 -7 0 -7 6
-1 19 6 10 7 22 3 26 -4 5 -2 5 4 2 7 -4 14 0 18 8 7 19 -8 19 -24 0 -7 -8
-20 -15 -30 -15 -29 0 -43 -25 -33 -57 7 -21 18 -30 44 -34 35 -6 27 -7 -98
-14 -12 0 -25 -4 -29 -8 -4 -4 521 -6 1166 -5 l1173 3 12 40 c7 22 18 60 24
85 7 25 15 54 18 64 4 12 2 17 -4 13 -6 -4 -19 -39 -28 -79 -10 -40 -25 -83
-33 -95 l-14 -23 -322 1 c-331 1 -399 5 -403 27 -2 6 2 12 8 12 5 0 8 4 4 9
-3 6 3 14 12 20 10 6 13 11 6 11 -6 0 -15 -5 -18 -10 -4 -7 -12 -7 -24 0 -10
5 -21 6 -25 3 -4 -4 -9 2 -12 12 -6 22 -56 64 -52 44 2 -7 -5 -15 -15 -17 -14
-3 -17 2 -14 24 2 15 10 30 18 32 11 3 11 1 -1 -8 -12 -9 -12 -11 -1 -8 8 2
15 16 17 31 3 28 -13 37 -22 13 -3 -8 -12 -12 -20 -9 -12 4 -11 8 3 18 10 8
15 16 11 20 -8 9 -68 -25 -69 -40 -1 -5 -4 5 -8 24 -3 19 -12 37 -20 39 -9 3
-12 0 -9 -10 7 -16 -37 -24 -47 -8 -3 6 0 10 9 10 27 0 23 25 -8 49 -17 13
-22 21 -12 17 18 -6 56 17 56 36 0 14 -28 9 -34 -7 -3 -8 -14 -15 -25 -15 -11
0 -22 -4 -25 -8 -7 -12 -74 -14 -81 -2 -4 7 4 23 16 37 l24 25 -24 -7 c-17 -5
-22 -4 -19 6 3 8 18 13 36 13 36 -1 38 3 17 30 -14 18 -15 18 -41 1 -24 -15
-26 -16 -21 -1 4 10 1 16 -8 16 -18 0 -9 52 11 63 8 5 12 13 8 18 -4 6 -16 1
-31 -13 -18 -17 -22 -18 -17 -5 7 20 -6 22 -25 5 -11 -10 -13 -10 -7 0 9 15
-17 16 -45 2 -15 -9 -19 -7 -19 5 0 9 7 18 15 21 8 4 15 10 15 15 0 6 -7 6
-18 0 -9 -5 -29 -8 -44 -8 -23 2 -26 6 -21 25 4 16 1 22 -12 22 -9 0 -14 -4
-10 -9 3 -5 0 -13 -6 -17 -6 -3 -15 0 -20 7 -5 8 -9 9 -9 4 0 -6 5 -16 11 -22
13 -13 4 -33 -17 -33 -8 0 -14 9 -14 20 0 11 -5 20 -11 20 -6 0 -13 -9 -16
-20 -3 -11 -7 -20 -10 -20 -2 0 -13 9 -25 20 -12 11 -25 20 -30 20 -13 0 -9
-18 5 -23 6 -3 -4 -6 -23 -7 -19 -1 -27 -4 -17 -7 9 -2 17 -9 17 -14 0 -15
-26 -10 -41 7 -12 14 -14 14 -20 -3 -6 -14 -8 -14 -8 -2 -1 11 -10 15 -33 13
-18 -2 -25 -1 -15 2 9 3 17 10 17 16 0 5 7 8 15 4 8 -3 15 0 15 7 0 8 4 6 10
-3 9 -13 10 -13 11 0 1 8 1 19 0 24 -3 13 81 0 89 -14 5 -8 10 -9 14 -2 9 15
-6 22 -64 29 -50 6 -79 30 -65 53 3 6 -3 10 -14 10 -11 0 -23 5 -26 10 -3 6
-1 10 4 10 6 0 11 5 11 10 0 14 -53 13 -68 -2 -6 -6 -15 -8 -19 -4 -4 4 0 12
10 17 24 14 21 32 -4 24 -18 -6 -20 -4 -14 14 5 17 2 21 -17 21 -13 0 -34 -7
-46 -16 -27 -19 -31 2 -4 22 16 12 15 13 -8 14 -20 0 -22 2 -10 10 15 10 8 11
-22 3z m-8 -144 c13 -9 12 -10 -2 -5 -12 3 -18 0 -18 -10 0 -12 -2 -12 -14 -2
-10 9 -11 15 -2 20 15 10 18 10 36 -3z m180 -138 c0 -5 -12 -8 -27 -8 -25 0
-25 0 -8 13 18 13 35 11 35 -5z m306 -8 c-10 -10 -19 5 -10 18 6 11 8 11 12 0
2 -7 1 -15 -2 -18z m-356 -35 c0 -13 -27 -9 -40 7 -19 22 -2 37 20 17 11 -9
20 -20 20 -24z m218 2 c15 0 15 -2 2 -10 -23 -15 -30 -12 -29 13 0 12 3 16 6
10 2 -7 12 -13 21 -13z m300 -21 c1 -31 -17 -39 -37 -15 -15 18 -5 41 18 43
13 1 18 -6 19 -28z m-767 8 c-1 -12 -15 -9 -19 4 -3 6 1 10 8 8 6 -3 11 -8 11
-12z m392 6 c-7 -2 -19 -2 -25 0 -7 3 -2 5 12 5 14 0 19 -2 13 -5z m-231 -85
c-7 -7 -12 -8 -12 -2 0 14 12 26 19 19 2 -3 -1 -11 -7 -17z m175 6 c-3 -3 -12
-4 -19 -1 -8 3 -5 6 6 6 11 1 17 -2 13 -5z m-337 -14 c0 -5 -4 -10 -9 -10 -6
0 -13 5 -16 10 -3 6 1 10 9 10 9 0 16 -4 16 -10z m-75 -10 c3 -5 1 -10 -4 -10
-6 0 -11 5 -11 10 0 6 2 10 4 10 3 0 8 -4 11 -10z m221 -5 c18 -15 18 -15 -5
-13 -14 2 -26 9 -29 16 -5 17 10 15 34 -3z m-46 -5 c0 -5 -4 -10 -10 -10 -5 0
-10 5 -10 10 0 6 5 10 10 10 6 0 10 -4 10 -10z m-90 -10 c0 -5 -5 -10 -11 -10
-5 0 -7 5 -4 10 3 6 8 10 11 10 2 0 4 -4 4 -10z m190 -18 c0 -11 -70 -30 -91
-25 -34 9 -21 26 15 20 24 -4 39 -1 47 9 11 13 29 11 29 -4z m-127 -23 c5 -20
-1 -23 -27 -13 -22 9 -20 29 3 31 11 1 21 -6 24 -18z m-93 -9 c6 -11 19 -20
30 -20 10 0 21 -4 25 -9 3 -6 -6 -6 -24 -1 -34 10 -80 50 -56 50 8 0 19 -9 25
-20z m800 16 c0 -2 -7 -7 -16 -10 -8 -3 -12 -2 -9 4 6 10 25 14 25 6z m127
-11 c-4 -8 -2 -17 4 -20 16 -11 -1 -25 -24 -21 -12 3 -25 5 -29 5 -5 1 -8 6
-8 12 0 7 9 9 24 5 20 -5 23 -3 19 14 -3 12 0 20 7 20 7 0 10 -7 7 -15z m-197
-25 c-27 -21 -40 -25 -40 -12 0 9 38 30 55 31 6 0 -1 -8 -15 -19z m-720 -60
c9 -17 8 -20 -9 -17 -29 4 -38 17 -21 27 19 12 18 13 30 -10z m-255 -120 c-3
-5 -11 -10 -16 -10 -6 0 -7 5 -4 10 3 6 11 10 16 10 6 0 7 -4 4 -10z m1400 0
c3 -5 1 -10 -4 -10 -6 0 -11 5 -11 10 0 6 2 10 4 10 3 0 8 -4 11 -10z m-1390
-30 c3 -5 1 -10 -4 -10 -6 0 -11 5 -11 10 0 6 2 10 4 10 3 0 8 -4 11 -10z
m1152 -15 c0 -8 -6 -16 -14 -19 -16 -7 -17 6 -1 22 15 15 15 15 15 -3z m-902
-5 c-3 -5 -10 -10 -16 -10 -5 0 -9 5 -9 10 0 6 7 10 16 10 8 0 12 -4 9 -10z
m1098 -7 c-7 -2 -19 -2 -25 0 -7 3 -2 5 12 5 14 0 19 -2 13 -5z m84 1 c-3 -3
-12 -4 -19 -1 -8 3 -5 6 6 6 11 1 17 -2 13 -5z"/>
<path d="M1998 1373 c6 -2 18 -2 25 0 6 3 1 5 -13 5 -14 0 -19 -2 -12 -5z"/>
<path d="M2166 1260 c-13 -4 -16 -9 -8 -14 7 -4 19 -3 28 2 21 12 5 22 -20 12z"/>
<path d="M2220 1260 c-12 -7 -12 -10 3 -16 21 -8 29 -3 19 13 -5 8 -13 9 -22
3z"/>
<path d="M2988 1263 c23 -2 59 -2 80 0 20 2 1 4 -43 4 -44 0 -61 -2 -37 -4z"/>
<path d="M3148 1263 c7 -3 16 -2 19 1 4 3 -2 6 -13 5 -11 0 -14 -3 -6 -6z"/>
<path d="M3285 1260 c3 -5 8 -10 11 -10 2 0 4 5 4 10 0 6 -5 10 -11 10 -5 0
-7 -4 -4 -10z"/>
<path d="M3450 1263 c236 -7 470 -7 470 0 0 4 -127 6 -282 5 -156 -1 -240 -3
-188 -5z"/>
<path d="M2200 1215 c0 -9 6 -12 15 -9 8 4 15 7 15 9 0 2 -7 5 -15 9 -9 3 -15
0 -15 -9z"/>
<path d="M2358 1223 c7 -3 16 -2 19 1 4 3 -2 6 -13 5 -11 0 -14 -3 -6 -6z"/>
<path d="M1775 1200 c-3 -5 1 -10 9 -10 9 0 16 5 16 10 0 6 -4 10 -9 10 -6 0
-13 -4 -16 -10z"/>
<path d="M1820 1190 c0 -5 5 -10 11 -10 5 0 7 5 4 10 -3 6 -8 10 -11 10 -2 0
-4 -4 -4 -10z"/>
<path d="M3240 1180 c-6 -11 -7 -20 -2 -20 10 0 32 21 32 32 0 16 -19 8 -30
-12z"/>
<path d="M3885 1160 c-4 -17 -5 -34 -2 -36 3 -3 8 9 12 26 4 17 5 34 2 36 -3
3 -8 -9 -12 -26z"/>
<path d="M1820 1140 c0 -5 7 -10 16 -10 8 0 12 5 9 10 -3 6 -10 10 -16 10 -5
0 -9 -4 -9 -10z"/>
<path d="M3095 1103 c-16 -20 -37 -46 -45 -57 -13 -20 -13 -20 5 -6 28 20 85
82 85 92 0 16 -16 6 -45 -29z"/>
<path d="M1740 1120 c0 -5 7 -10 15 -10 8 0 15 5 15 10 0 6 -7 10 -15 10 -8 0
-15 -4 -15 -10z"/>
<path d="M1708 1113 c7 -3 16 -2 19 1 4 3 -2 6 -13 5 -11 0 -14 -3 -6 -6z"/>
<path d="M2615 1110 c3 -5 13 -10 21 -10 8 0 14 5 14 10 0 6 -9 10 -21 10 -11
0 -17 -4 -14 -10z"/>
<path d="M3862 1081 c-17 -48 -14 -73 4 -32 8 19 13 42 11 50 -1 9 -8 2 -15
-18z"/>
<path d="M2650 1061 c0 -6 4 -13 10 -16 6 -3 7 1 4 9 -7 18 -14 21 -14 7z"/>
<path d="M3830 969 c-6 -24 -15 -60 -21 -79 -5 -19 -9 -42 -9 -50 1 -29 16 11
35 88 18 78 14 114 -5 41z"/>
<path d="M3007 919 c-3 -13 -1 -19 6 -16 15 5 22 37 9 37 -5 0 -12 -9 -15 -21z"/>
<path d="M2793 916 c17 -13 16 -14 -3 -19 -11 -3 -20 -10 -20 -16 0 -18 36
-12 55 9 19 21 20 20 -32 35 -17 5 -17 4 0 -9z"/>
<path d="M2750 910 c-9 -6 -10 -10 -3 -10 6 0 15 5 18 10 8 12 4 12 -15 0z"/>
<path d="M3250 798 c0 -7 5 -20 10 -28 8 -12 10 -9 10 13 0 15 -4 27 -10 27
-5 0 -10 -6 -10 -12z"/>
<path d="M3026 651 c-4 -7 -5 -15 -2 -18 9 -9 19 4 14 18 -4 11 -6 11 -12 0z"/>
<path d="M3058 653 c7 -3 16 -2 19 1 4 3 -2 6 -13 5 -11 0 -14 -3 -6 -6z"/>
</g>
</svg>
